<svg xmlns="http://www.w3.org/2000/svg" version="1.1" xmlns:xlink="http://www.w3.org/1999/xlink" xmlns:svgjs="http://svgjs.dev/svgjs" width="1000" height="1000" viewBox="0 0 1000 1000"><g transform="matrix(1,0,0,1,-0.14221556886212738,-0.14221556886229791)"><svg viewBox="0 0 334 334" data-background-color="#ffffff" preserveAspectRatio="xMidYMid meet" height="1000" width="1000" xmlns="http://www.w3.org/2000/svg" xmlns:xlink="http://www.w3.org/1999/xlink"><g id="tight-bounds" transform="matrix(1,0,0,1,0.04749999999998522,0.04750000000001364)"><svg viewBox="0 0 333.90454557049503 333.90454557049503" height="333.90454557049503" width="333.90454557049503"><g><svg></svg></g><g><svg viewBox="0 0 333.90454557049503 333.90454557049503" height="333.90454557049503" width="333.90454557049503"><g><path d="M0 166.952c0-92.205 74.747-166.952 166.952-166.952 92.205 0 166.952 74.747 166.953 166.952 0 92.205-74.747 166.952-166.953 166.953-92.205 0-166.952-74.747-166.952-166.953zM166.952 316.63c82.665 0 149.677-67.013 149.678-149.678 0-82.665-67.013-149.677-149.678-149.677-82.665 0-149.677 67.013-149.677 149.677 0 82.665 67.013 149.677 149.677 149.678z" data-fill-palette-color="tertiary" fill="#ee3e38" stroke="transparent"></path><ellipse rx="160.27418187383762" ry="160.27418187383762" cx="166.95227278524752" cy="166.95227278524752" fill="#ee3e38" stroke="transparent" stroke-width="0" fill-opacity="1" data-fill-palette-color="tertiary"></ellipse></g><g transform="matrix(1,0,0,1,69.48034135081042,71.17305217166896)"><svg viewBox="0 0 194.9438628688742 191.55844122715712" height="191.55844122715712" width="194.9438628688742"><g><svg viewBox="0 0 194.9438628688742 191.55844122715712" height="191.55844122715712" width="194.9438628688742"><g><svg viewBox="0 0 194.9438628688742 191.55844122715712" height="191.55844122715712" width="194.9438628688742"><g><svg viewBox="0 0 194.9438628688742 191.55844122715712" height="191.55844122715712" width="194.9438628688742"><g><svg viewBox="0 0 194.9438628688742 191.55844122715712" height="191.55844122715712" width="194.9438628688742"><g><svg viewBox="0 0 194.9438628688742 191.55844122715712" height="191.55844122715712" width="194.9438628688742"><g transform="matrix(1,0,0,1,0,0)"><svg width="194.9438628688742" viewBox="3 -33.95000076293945 34.54999923706055 33.95000076293945" height="191.55844122715712" data-palette-color="#ffffff"><path d="M28.1-13L22.5 0 18.3 0 12.65-12.85Q12.4-13.4 12.03-14.35 11.65-15.3 11.2-16.45 10.75-17.6 10.25-18.88 9.75-20.15 9.3-21.45L9.3-21.45Q9.3-20.15 9.28-18.88 9.25-17.6 9.2-16.48 9.15-15.35 9.13-14.48 9.1-13.6 9.1-13.1L9.1-13.1 8.6 0 3 0 5-33.95 9.65-33.95 18.2-12.75Q18.65-11.6 19.23-10.25 19.8-8.9 20.3-7.6L20.3-7.6Q20.8-8.9 21.35-10.23 21.9-11.55 22.4-12.75L22.4-12.75 31-33.95 35.55-33.95 37.55 0 32 0 31.45-12.95Q31.4-14.2 31.33-16.53 31.25-18.85 31.2-21.25L31.2-21.25Q30.75-20 30.28-18.75 29.8-17.5 29.4-16.4 29-15.3 28.65-14.4 28.3-13.5 28.1-13L28.1-13Z" opacity="1" transform="matrix(1,0,0,1,0,0)" fill="#ffffff" class="undefined-text-0" data-fill-palette-color="quaternary" id="text-0"></path></svg></g></svg></g></svg></g></svg></g><g></g></svg></g></svg></g></svg></g></svg></g><defs></defs></svg><rect width="333.90454557049503" height="333.90454557049503" fill="none" stroke="none" visibility="hidden"></rect></g></svg></g></svg>